# xmcd
#
# Track frame offsets: 
#        150
#        16985
#        37390
#        56670
#        71320
#        100080
#        117560
#        148127
#        165545
#        186997
#        209805
#        227617
#        262407
#        285255
#        295845
#
# Disc length: 4345 seconds
#
# Revision: 31
# Processed by: cddbd v1.5.2PL0 Copyright (c) Steve Scherf et al.
# Submitted via: ExactAudioCopyFreeDBPlugin 1.0
#
DISCID=ee10f70f
DTITLE=Various Artist - Best Classics 100 (Disc5) - Favourite Classic
DTITLE=s
DYEAR=2005
DGENRE=Classical
TTITLE0=Mascagni - Intermezzo
TTITLE1=Rachmaninov - Piano Concerto No. 2 in C Minor Op. 18
TTITLE2=Grieg - Morning
TTITLE3=Shostakovich - Romance
TTITLE4=Barber - Adagio for Strings
TTITLE5=Rimsky-Korsakov - Scheherazade
TTITLE6=Massenet - Meditation
TTITLE7=Borodin - Polovtsian Dances
TTITLE8=Khachaturian - Adagius of Spartacus and Phrygia
TTITLE9=Tchaikovsky - Romeo and Juliet
TTITLE10=Beethoven - Symphony No. 7 in A Op. 92
TTITLE11=J.S. Bach - Double Violin Concerto in D Minor
TTITLE12=Williams - Schindler's List Theme
TTITLE13=Tchaikovsky - Dance of the Reed Flutes
TTITLE14=Beethoven - Symphony No. 6 in F 'Pastoral' Op. 68
EXTD=YEAR: 2005
EXTT0=마스카니/카발레리아 루스티카나 중 간주곡
EXTT1=라흐마니노프/피아노 협주곡 2번2악장(도입부)
EXTT2=그리그/페르 귄트 중 아침
EXTT3=쇼스타코비치/로망스
EXTT4=바버/현을 위한 아다지오
EXTT5=림스키-코르사코프/셰헤라자데 중 칼렌더 왕자의이야기(도입부)
EXTT6=마스네/타이스의 명상곡
EXTT7=보로딘/폴로베츠인의 춤
EXTT8=하차투리안/스파르타쿠스와 프리지아의 아다지오
EXTT9=차이코프스키/환상 서곡로미오와 줄리엣(발췌)
EXTT10=베토벤/교향곡 7번 2악장(발췌)
EXTT11=바흐/두 대의바이올린을 위한 협주곡 D단조 2악장
EXTT12=윌리엄스/쉰들러 리스트 테마
EXTT13=차이코프스키/호두까기인형 중 갈대 피리의 춤
EXTT14=베토벤/교향곡 6번 '전원' 5악장
PLAYORDER=
